<?xml version="1.0" encoding="utf-8"?>
<!-- Generator: Adobe Illustrator 26.3.1, SVG Export Plug-In . SVG Version: 6.00 Build 0)  -->
<svg version="1.1" id="Layer_1" xmlns="http://www.w3.org/2000/svg" xmlns:xlink="http://www.w3.org/1999/xlink" x="0px" y="0px"
	 viewBox="0 0 1024 1024" style="enable-background:new 0 0 1024 1024;" xml:space="preserve">
<rect x="-1" style="fill:#FFFFFF;" width="1024" height="1024"/>
<path style="fill:#6ABFB7;stroke:#6ABFB7;stroke-width:3;" d="M406.8,871.9c-37.3-7.2-66.8-18.8-90-32.1l0,0l30-26.6l-5.7-5.6
	c-0.4-0.4-0.8-0.8-1.2-1.2l-31.7,27.9c-22.3-13.5-41.7-31.4-57-52.5l0,0l19.3-52.1l44-4.3c0.5-3,1.1-5.9,1.9-8.8l-41.8,4.1
	l35.9-95.6l55.4,32.3c3.3-1.6,6.8-3,10.3-4.2l-62.6-36.6L359.1,495l70.7,156.4c4.1,1.1,8.1,2.4,11.9,4L368,491.8l151.7,74.1
	l-49.6,108c0.6,0.5,1.1,1,1.7,1.6l1.8,1.8c0.7-0.7,1.4-1.5,2.1-2.2c2.2-2.2,4.5-4.2,6.8-6.1l45.2-99.1l30.1,14.4l-65.7,77.9
	c6.1-3.8,12.7-6.9,19.5-9.1l54.2-64.3l33.5,16.3l6.9-6.9l-34.1-16.6l98.3-116.7l28.8,57.5c3-0.8,6-1.4,9-1.9l-31.6-62.8l22.4-26.5
	l55.2,48.9v44.4c3.1,1.1,6,2.3,9,3.7V196.9L760,196c-1.3-0.5-134.2-25.6-261.3-26h-3.6c-128.4,0-264,26-265.3,26l-3.6,0.9v556.3
	c0.5,1.3,10.3,34.6,48.9,68.2c41.1,35.9,93.4,53.5,142.9,61.5L406.8,871.9z M363.1,462.7L359.5,257l79.5,31.4L363.1,462.7z
	 M447.5,291.6L610,355.8L368.5,472.1L447.5,291.6z M523.4,557.8L368,482.4l243.3-117.2L523.4,557.8z M563.8,577.6l-32.3-15.7
	l89.3-195.7l45.3,90.2L563.8,577.6z M672.4,449.2l-37.3-74.5l57,50.7L672.4,449.2z M754.6,468.1l-49.4-44l49.4-58.8V468.1z
	 M754.6,351.8l-56.1,66.4l-70.9-62.9l127.1-144.6L754.6,351.8z M748.8,203.6L626.6,342.3l16.6-154
	C692.6,193.7,732.1,200.5,748.8,203.6z M634.7,187.5L634.7,187.5l-17.1,155.8L504.5,178.9C548,179.6,591.5,182.4,634.7,187.5z
	 M495.6,181.6l113.1,164.3l-157.6-62.4L495.6,181.6z M487,179.4l-44.4,101l-83.5-33.2l-0.9-60.2C401,182.3,444,179.7,487,179.4z
	 M349.2,187.9l0.9,55.7l-104.2-41.3C265.7,198.7,303.4,192.8,349.2,187.9z M350.5,253.5l3.6,207.9l-112.2-251L350.5,253.5z
	 M234.7,217.1l109.5,244.7l-109-113.2l-0.5,0.5V217.1z M234.7,361.2l115.8,119.9l-115.8,55.7V361.2z M234.7,547.1l116.7-56.6
	l-45.8,121.7l-70.9-41.3L234.7,547.1L234.7,547.1z M234.7,580.7l67.8,40l-38.2,101l-29.6,2.7L234.7,580.7L234.7,580.7z M234.2,750.9
	v-17.5h0.5l26-2.7L245,772.4C240.8,765.6,237.2,758.4,234.2,750.9z"/>
<path style="fill:#6ABFB7;" d="M900.4,654c11-11,17-25.6,17-41.1s-6-30.1-17-41.1l-0.7-0.7c-11-11-25.6-17-41.2-17
	c-15.5,0-30.1,6.1-41.1,17.1l-35.3,35.4c-1.4-13.1-7.2-25.3-16.7-34.7l-0.7-0.7c-11-11-25.6-17-41.2-17c-15.5,0-30.1,6.1-41.1,17.1
	L565.6,688.6c-21.4-9.9-47.6-6.1-65.3,11.3c-9.9,9.8-15.9,22.5-17.1,36.2l-35.9-35.9c-22.5-22.5-59.3-22.6-81.9-0.3
	c-11.2,11-17.3,25.8-17.3,41.5s6.2,30.4,17.5,41.4l88,86.1c13,12.8,30.3,19.8,48.5,19.8h0.4c18.4-0.1,35.7-7.3,48.7-20.3l18.2-18.2
	l19.1,18.7c13,12.8,30.3,19.8,48.5,19.8h0.4c18.4-0.1,35.7-7.3,48.7-20.3L900.4,654z M697.4,586c7-7,16.4-10.9,26.3-10.9
	c9.9,0,19.2,3.9,26.3,10.9l0.7,0.7c7,7,10.9,16.3,10.9,26.3c0,7.4-2.2,14.5-6.2,20.5c-1.4,2-2.9,4-4.7,5.7L637.9,752l-53.7-52.3
	L697.4,586z M536.3,853.6c-9.1,9.1-21.1,14.1-34,14.2H502c-12.7,0-24.8-4.9-33.9-13.8l-88-86.1c-7.2-7-11.1-16.4-11.2-26.5
	c0-10,3.9-19.5,11-26.5c14.5-14.3,38-14.2,52.4,0.2l68.3,68.3l52.7,53L536.3,853.6z M637.7,867.8h-0.3c-12.7,0-24.8-4.9-33.9-13.8
	l-88-86.1c-7.2-7-11.1-16.4-11.2-26.5c0-10,3.9-19.5,11-26.5c14.5-14.3,38-14.2,52.4,0.2l68.3,68.3l14.9-15L832.7,586
	c7-7,16.4-10.9,26.3-10.9c9.9,0,19.2,3.9,26.3,10.9l0.7,0.7c7,7,10.9,16.3,10.9,26.3c0,7.4-2.2,14.5-6.2,20.5c-1.4,2-2.9,4-4.7,5.7
	L671.7,853.6C662.6,862.6,650.5,867.7,637.7,867.8z"/>
</svg>
