<?xml version="1.0" encoding="utf-8"?>
<!-- Generator: Adobe Illustrator 26.3.1, SVG Export Plug-In . SVG Version: 6.00 Build 0)  -->
<svg version="1.1" id="Layer_1" xmlns="http://www.w3.org/2000/svg" xmlns:xlink="http://www.w3.org/1999/xlink" x="0px" y="0px"
	 width="133px" height="140.2px" viewBox="0 0 133 140.2" style="enable-background:new 0 0 133 140.2;" xml:space="preserve">
<g id="Group_1935" transform="translate(-133.896 -129.963)">
	<g id="Group_1913">
		<g id="Group_1912">
			<path id="Path_924" d="M234.5,203.6h-15c-1.4,0-2.5-1.1-2.5-2.5s1.1-2.5,2.5-2.5h15c1.4,0,2.5,1.1,2.5,2.5
				S235.8,203.6,234.5,203.6z"/>
		</g>
	</g>
	<g id="Group_1915">
		<g id="Group_1914">
			<path id="Path_925" d="M231.9,213.6h-12.4c-1.4,0-2.5-1.1-2.5-2.5s1.1-2.5,2.5-2.5h12.4c1.4,0,2.5,1.1,2.5,2.5
				S233.3,213.6,231.9,213.6z"/>
		</g>
	</g>
	<g id="Group_1916">
		<path id="Path_926" d="M186.1,229.4l0-36.8l1.7-0.5c0.5-0.2,8.9-3.5,9.8-21.8c0-1.6,0.8-3.1,2.1-4.1c1.9-1.3,4.2-1.7,6.4-1.1
			c4.2,0.8,7.6,3.9,8.8,8c1.1,3.8,1.4,7.9,0.8,11.8c0,0.4-0.1,0.7,0,1.1l10.2,0.1c3.3-0.1,6.5,1.4,8.5,4.2c4.1,5.7,2.7,16.1,0,23.9
			c-0.2,0.5-0.3,0.9-0.5,1.4c-2.9,8.3-10.8,13.9-19.6,13.9L186.1,229.4z M191.1,196.1l0,28.4l23.2,0c6.7,0,12.7-4.3,14.9-10.6
			c0.2-0.4,0.3-0.9,0.5-1.3c2.3-6.9,3.4-15.5,0.6-19.4c-1-1.4-2.7-2.2-4.5-2.1l-10.6-0.1c-1.3,0-2.5-0.5-3.3-1.4
			c-1.4-1.5-1.3-3.7-1.1-5.2c0.5-3.3,0.3-6.6-0.6-9.8c-0.6-2.4-2.6-4.1-5-4.6c-0.8-0.2-1.6-0.2-2.4,0.2c0,0-0.1,0.1-0.1,0.5
			C201.8,187.9,194.6,194.1,191.1,196.1z"/>
	</g>
	<g id="Group_1917">
		<path id="Path_927" d="M182.1,230.8h-13v-41.5h13c5.4,0,9.8,4.4,9.8,9.8V221C191.9,226.4,187.5,230.8,182.1,230.8z M174.1,225.8h8
			c2.7,0,4.8-2.2,4.8-4.8v-21.8c0-2.7-2.2-4.8-4.8-4.8h-8L174.1,225.8z"/>
	</g>
	<g id="Group_1919">
		<g id="Group_1918">
			<path id="Path_928" d="M205.3,151.4h-6.8v-4.7c-2.7-0.3-4.7-2.5-4.7-5.2v-6.8h4.7V130h6.8c2.7,0,4.9,2,5.2,4.7h4.7v6.8
				c0,2.7-2.1,4.9-4.7,5.2C210.3,149.3,208,151.4,205.3,151.4z M201.9,147.5h3.3c1.1,0,1.9-0.9,1.9-1.9v-2.2h2.2
				c1.1,0,1.9-0.9,1.9-1.9c0,0,0,0,0,0V138h-4.2v-2.2c0-1.1-0.9-1.9-1.9-1.9h-3.3v4.2h-4.2v3.3c0,1.1,0.9,1.9,1.9,1.9h2.2
				L201.9,147.5z"/>
		</g>
	</g>
	<g id="Group_1934">
		<g id="Group_1921">
			<g id="Group_1920">
				<path id="Path_929" d="M266.3,205.3c0.9-1.1,0.8-2.6-0.3-3.5c-0.4-0.4-1-0.6-1.6-0.6l-8.6-0.1c-1.4,0-2.5,1.1-2.5,2.5
					c0,1.4,1.1,2.5,2.5,2.5l8.6,0.1C265.1,206.2,265.9,205.9,266.3,205.3z"/>
			</g>
		</g>
		<g id="Group_1923">
			<g id="Group_1922">
				<path id="Path_930" d="M146.9,205.3c0.9-1.1,0.8-2.6-0.3-3.5c-0.4-0.4-1-0.6-1.6-0.6l-8.6-0.1c-1.4,0-2.5,1.1-2.5,2.5
					c0,1.4,1.1,2.5,2.5,2.5l8.6,0.1C145.7,206.2,146.4,205.9,146.9,205.3z"/>
			</g>
		</g>
		<g id="Group_1925">
			<g id="Group_1924">
				<path id="Path_931" d="M245.9,251.4c1.4-0.1,2.4-1.3,2.3-2.7c-0.1-0.6-0.3-1.1-0.7-1.5l-6-6.1c-1-1-2.5-1-3.5-0.1
					c-1,1-1,2.5-0.1,3.5c0,0,0,0,0.1,0.1l6,6.1C244.4,251.2,245.1,251.5,245.9,251.4z"/>
			</g>
		</g>
		<g id="Group_1927">
			<g id="Group_1926">
				<path id="Path_932" d="M161.4,167c1.4-0.1,2.4-1.3,2.3-2.7c-0.1-0.6-0.3-1.1-0.7-1.5l-6-6.1c-1-1-2.6-1-3.5,0c-1,1-1,2.6,0,3.5
					l6,6.1C159.9,166.8,160.7,167,161.4,167z"/>
			</g>
		</g>
		<g id="Group_1929">
			<g id="Group_1928">
				<path id="Path_933" d="M248.2,158.2c-0.1-1.4-1.3-2.4-2.7-2.3c-0.6,0-1.1,0.3-1.5,0.7l-6.1,6c-1,1-1,2.6,0,3.5
					c1,0.9,2.5,1,3.5,0l6.1-6C248,159.7,248.2,158.9,248.2,158.2z"/>
			</g>
		</g>
		<g id="Group_1931">
			<g id="Group_1930">
				<path id="Path_934" d="M163.7,242.6c-0.1-1.4-1.3-2.4-2.7-2.3c-0.6,0-1.1,0.3-1.5,0.7l-6.1,6c-1,1-1,2.5-0.1,3.5
					c1,1,2.5,1,3.5,0.1c0,0,0,0,0.1-0.1l6.1-6C163.5,244.1,163.8,243.4,163.7,242.6z"/>
			</g>
		</g>
		<g id="Group_1933">
			<g id="Group_1932">
				<path id="Path_935" d="M198.8,269.6c1.1,0.9,2.6,0.8,3.5-0.3c0.4-0.4,0.6-1,0.6-1.6l0.1-8.6c0-1.4-1.1-2.5-2.5-2.5
					c-1.4,0-2.5,1.1-2.5,2.5l0,0l-0.1,8.6C197.9,268.4,198.2,269.1,198.8,269.6z"/>
			</g>
		</g>
	</g>
</g>
</svg>
