<?xml version="1.0" encoding="utf-8"?>
<!-- Generator: Adobe Illustrator 26.3.1, SVG Export Plug-In . SVG Version: 6.00 Build 0)  -->
<svg version="1.1" id="Layer_1" xmlns="http://www.w3.org/2000/svg" xmlns:xlink="http://www.w3.org/1999/xlink" x="0px" y="0px"
	 width="15px" height="15px" viewBox="0 0 15 15" style="enable-background:new 0 0 15 15;" xml:space="preserve">
<style type="text/css">
	.st0{fill:#6ABFB7;}
</style>
<path class="st0" d="M14,11.9L9.6,7.5L14,3.1c0.6-0.6,0.6-1.5,0-2.1c-0.6-0.6-1.5-0.6-2.1,0L7.5,5.4L3.1,1l0,0C2.5,0.5,1.6,0.5,1,1
	C0.5,1.6,0.5,2.5,1,3.1l4.4,4.4L1,11.9c-0.6,0.6-0.6,1.5,0,2.1c0.6,0.6,1.5,0.6,2.1,0l4.4-4.4l4.4,4.4c0,0,0,0,0,0
	c0.6,0.6,1.5,0.6,2.1,0S14.5,12.5,14,11.9z"/>
</svg>
