<?xml version="1.0" encoding="utf-8"?>
<!-- Generator: Adobe Illustrator 24.2.0, SVG Export Plug-In . SVG Version: 6.00 Build 0)  -->
<svg version="1.1" id="Layer_1" xmlns="http://www.w3.org/2000/svg" xmlns:xlink="http://www.w3.org/1999/xlink" x="0px" y="0px"
	 viewBox="0 0 50 50" style="enable-background:new 0 0 50 50;" xml:space="preserve">
<g id="clinical_rotation" transform="translate(-123.623 19.636)">
	<path id="Path_773" class="st0" d="M141.6-7.3h3.8v3.8c0,0.5,0.4,0.9,0.9,0.9h4.8c0.5,0,0.9-0.4,0.9-0.9v0l0,0v-3.7h3.7
		c0.5,0,0.9-0.4,0.9-0.9v-4.9c0.1-0.4-0.2-0.8-0.6-0.9c0,0,0,0,0,0c-0.1,0-0.1,0-0.2,0h-3.7v-3.8c-0.1-0.5-0.5-0.9-1-0.9h-4.8
		c-0.5,0-0.9,0.4-0.9,0.9v3.9h-3.8c-0.5,0-0.9,0.4-0.9,0.9v4.8C140.7-7.7,141.1-7.3,141.6-7.3L141.6-7.3z"/>
	<path id="Path_774" class="st0" d="M172.8,24.1h-2.2v-19h0.1c0.5,0,0.9-0.4,0.9-0.9v-4c0-0.5-0.4-0.9-0.9-0.9h-4
		c-0.5,0-0.9,0.4-0.9,0.9v0c0,0.2,0.1,0.5,0.2,0.7c0.2,0.2,0.4,0.3,0.7,0.3h3.1v2.1h-4.9V-9.3c0-0.4-0.2-0.7-0.5-0.8
		c-0.4-0.2-0.9-0.4-1.4-0.6c-0.2-0.1-0.5-0.2-0.7-0.3c-0.2-0.1-0.5-0.2-0.7-0.2c-0.3,0-0.5,0-0.7,0.2c-0.3,0.2-0.2,0.8,0,1.1
		c0.3,0.3,0.6,0.5,1,0.5c0.4,0.2,0.8,0.4,1.3,0.6V3c-2.3-1.1-4.8-1.8-7.4-2c-2.5-0.1-4.7,0.4-6.2,1.5c-0.5,0.3-1.2,0.3-1.7,0
		c-1.5-1.1-3.6-1.6-6.2-1.5c-2.6,0.2-5.1,0.8-7.4,2V-8.8c0.6-0.3,1.1-0.5,1.7-0.7c0.4-0.2,0.7-0.6,0.6-1c-0.1-0.2-0.2-0.5-0.5-0.6
		c-0.2-0.1-0.5-0.1-0.7,0c-0.9,0.3-1.7,0.7-2.5,1.1c-0.2,0.2-0.4,0.4-0.4,0.7v8.5h-6.1c-0.5,0-0.9,0.4-0.9,0.9v4
		c0,0.5,0.4,0.9,0.9,0.9h0.1v1.4c0,0.5,0.3,1,0.9,1c0,0,0,0,0.1,0c0.2,0,0.5-0.1,0.7-0.2c0.2-0.2,0.3-0.4,0.3-0.7V5.1h4.1v3
		c0,0.2,0,0.5,0.1,0.7c0,0.2,0.2,0.3,0.4,0.3h0.3c0.5-0.2,1-0.5,1.4-0.8c1.2-0.6,2.5-1.1,3.7-1.5c0.8-0.2,1.6-0.4,2.4-0.4
		c1.5-0.2,3-0.1,4.5,0.3c1.2,0.4,2,0.9,2.5,1.6c0.2,0.2,0.3,0.4,0.4,0.6c0.1,0.2,0.3,0.4,0.5,0.4h0.1c0.3,0,0.5-0.2,0.6-0.4
		c0.1-0.2,0.2-0.4,0.4-0.6c0.7-0.9,1.9-1.5,3.6-1.8c1.5-0.3,3.1-0.2,4.6,0.2c1.1,0.2,2.1,0.5,3.1,0.9c0.6,0.2,1.2,0.5,1.7,0.8
		c0.3,0.2,0.5,0.3,0.8,0.5c0.3,0.2,0.5,0.4,0.8,0.3c0.2,0,0.4-0.2,0.4-0.4c0.1-0.5,0.1-1,0.1-1.5v-2h3.4v19h-13.3V13.9
		c0-0.5-0.4-0.9-0.9-0.9h-11.8c-0.5,0-0.9,0.4-0.9,0.9v10.3h-13.4V11c0-0.5-0.4-0.9-0.9-0.9c-0.5,0-0.9,0.4-0.9,0.9v13.1h-2.2
		c-0.5,0-0.9,0.4-0.9,0.9v3.4c0,0.5,0.4,0.9,0.9,0.9h48.3c0.5,0,0.9-0.4,0.9-0.9V25c0.1-0.4-0.2-0.8-0.6-0.9c0,0,0,0,0,0
		C173,24.1,172.9,24.1,172.8,24.1z M127.5,3.2V1h5.2v2.2H127.5z M148,5.8c-1.5-1.1-3.6-1.6-6.2-1.5c-2.6,0.2-5.1,0.8-7.4,2V5.2
		c1.2-0.7,2.6-1.2,3.9-1.5c1.3-0.4,2.6-0.6,3.9-0.6c2.6,0,4.6,0.7,5.6,2.2C148,5.3,148,5.8,148,5.8z M163.2,6.3
		c-2.3-1.1-4.8-1.8-7.4-2H155c-2.2,0-4,0.5-5.4,1.5V5.1c1-1.5,3-2.2,5.6-2.2c1.3,0,2.7,0.2,3.9,0.6c1.4,0.4,2.7,0.9,3.9,1.6v1.2
		L163.2,6.3z M149.6,14.7h4.1v9.4h-4.1V14.7z M143.7,14.7h4.1v9.4h-4.1L143.7,14.7z M171.9,27.4h-46.7v-1.6h46.7L171.9,27.4z"/>
	<path id="Path_775" class="st0" d="M138.7,19.3c0.5,0,0.9-0.4,0.9-0.9v-5.9c0-0.5-0.4-0.9-0.9-0.9h-7.9c-0.5,0-0.9,0.4-0.9,0.9v5.9
		c0,0.5,0.4,0.9,0.9,0.9L138.7,19.3L138.7,19.3z M131.7,13.6h6.1v4h-6.1V13.6z"/>
	<path id="Path_776" class="st0" d="M166.6,19.3c0.5,0,0.9-0.4,0.9-0.9v-5.9c0-0.5-0.4-0.9-0.9-0.9h-7.9c-0.5,0-0.9,0.4-0.9,0.9v5.9
		c0,0.5,0.4,0.9,0.9,0.9L166.6,19.3L166.6,19.3z M159.6,13.6h6.1v4h-6.1V13.6z"/>
</g>
</svg>
