<?xml version="1.0" encoding="utf-8"?>
<!-- Generator: Adobe Illustrator 26.3.1, SVG Export Plug-In . SVG Version: 6.00 Build 0)  -->
<svg version="1.1" id="Group_2019" xmlns="http://www.w3.org/2000/svg" xmlns:xlink="http://www.w3.org/1999/xlink" x="0px" y="0px"
	 width="16.9px" height="22px" viewBox="0 0 16.9 22" style="enable-background:new 0 0 16.9 22;" xml:space="preserve">
<path id="Path_337" d="M16.7,6.2l-5.9-5.9C10.6,0.1,10.4,0,10.2,0H2.4C1.1,0,0,1.1,0,2.4l0,0l0,0v17.2C0,20.9,1.1,22,2.4,22l0,0
	h12.2c1.3,0,2.4-1.1,2.4-2.4c0,0,0,0,0,0V6.8C16.9,6.5,16.8,6.3,16.7,6.2z M11,2.9l3.9,3.9H11V2.9z M14.5,20.3H2.4
	c-0.4,0-0.7-0.3-0.7-0.7V2.4C1.7,2,2,1.7,2.4,1.7h6.9v5.2c0,0.8,0.7,1.5,1.5,1.5h4.4v11.2C15.2,20,14.9,20.3,14.5,20.3z"/>
</svg>
