<?xml version="1.0" encoding="utf-8"?>
<!-- Generator: Adobe Illustrator 26.3.1, SVG Export Plug-In . SVG Version: 6.00 Build 0)  -->
<svg version="1.1" id="Layer_1" xmlns="http://www.w3.org/2000/svg" xmlns:xlink="http://www.w3.org/1999/xlink" x="0px" y="0px"
	 width="22.5px" height="22.5px" viewBox="0 0 22.5 22.5" style="enable-background:new 0 0 22.5 22.5;" xml:space="preserve">
<path d="M19.2,3.3c-2.1-2.1-5-3.3-7.9-3.3c0,0,0,0,0,0c-3,0-5.8,1.2-8,3.3c-2.1,2.1-3.3,5-3.3,8c0,3,1.2,5.8,3.3,8
	c2.2,2.2,5,3.2,7.9,3.2c2.9,0,5.8-1.1,8-3.3C23.5,14.8,23.5,7.7,19.2,3.3z M12.4,16.4c0,0.3-0.1,0.6-0.3,0.8
	c-0.2,0.2-0.5,0.3-0.7,0.3c0,0,0,0,0,0c-0.6,0-1.1-0.5-1.1-1.1v-5.2c0-0.6,0.5-1.1,1.1-1.1h0c0.6,0,1.1,0.5,1.1,1.1V16.4z M11.3,7.6
	C10.6,7.6,10,7,10,6.3S10.6,5,11.3,5h0c0.7,0,1.3,0.6,1.3,1.3C12.6,7,12,7.6,11.3,7.6z"/>
</svg>
