<svg xmlns="http://www.w3.org/2000/svg" width="9.556" height="10.649" viewBox="0 0 9.556 10.649">
  <path id="Path_962" data-name="Path 962" d="M1091.13,504.068h-.345l.006-1.033a3.21,3.21,0,0,0-2.976-3.361h-.089a3.3,3.3,0,0,0-3.1,3.419l-.005.975h-.365a1.409,1.409,0,0,0-1.339,1.461v3.333a1.408,1.408,0,0,0,1.339,1.461h6.878a1.408,1.408,0,0,0,1.339-1.461v-3.333A1.408,1.408,0,0,0,1091.13,504.068Zm-5.153-.919a1.948,1.948,0,0,1,1.77-2.059h.051a1.9,1.9,0,0,1,1.7,2.023l-.006.955h-3.516Z" transform="translate(-1082.913 -499.674)" fill="#b2b2b2"/>
</svg>
