<?xml version="1.0" encoding="utf-8"?>
<!-- Generator: Adobe Illustrator 26.3.1, SVG Export Plug-In . SVG Version: 6.00 Build 0)  -->
<svg version="1.1" id="Layer_1" xmlns="http://www.w3.org/2000/svg" xmlns:xlink="http://www.w3.org/1999/xlink" x="0px" y="0px"
	 viewBox="0 0 387.1 354.8" style="enable-background:new 0 0 387.1 354.8;" xml:space="preserve">
<g id="BACKGROUND">
</g>
<g id="OBJECTS">
	<g>
		<g>
			<g>
				<defs>
					<path id="SVGID_1_" d="M15.4,268.4c7.2,9.2,18.4,8.8,28.7,8.4c9.9-0.4,19.2,1.2,28,6c8.1,4.4,14.3,13.1,21.1,19.7
						c33.7,32.5,74.2,52.3,120.6,52.3c34.3,0,68-9.8,98.9-24.9c19.8-9.6,40.4-21.4,54.3-39.6c14.4-18.9,21.1-45.3,20.1-69.1
						c-0.6-13.8-4.1-28.1-12.2-39.2c-9.2-12.5-23.6-16.7-36.8-22.9c-21.2-10,34.2-46.2,33.4-70.2c-1.9-64.2-106.4-26.3-122.4-47.1
						c-16.1-21-40.4-34.1-65.7-39.1s-51.5-2.6-76.5,3.6C83.2,12.2,59.3,22,42.6,40.5c-19.9,22-27.1,55.6-18.3,84.4
						c4.2,13.7,11.9,27.3,9.5,41.4c-2.2,13.1-12.4,22.9-21,32.8C-4.9,219.8-4.4,249.1,15.4,268.4"/>
				</defs>
				<clipPath id="SVGID_00000055692312577776040430000000381167605463773067_">
					<use xlink:href="#SVGID_1_"  style="overflow:visible;"/>
				</clipPath>
				<g style="clip-path:url(#SVGID_00000055692312577776040430000000381167605463773067_);">
					<g style="opacity:0.5;">
						<g>
							<path style="fill:#A1D0CB;" d="M632.9,214.6v1.2c-61.4,39.9-135,60.4-208.3,60.4c-56.2,0-112.4-12-163-36.7
								c-22.8-11.1-44.7-24.7-65.9-37.8c-15.2-9.4-30.7-19-46.7-27.8c-1.4-0.8-2.8-1.5-4.2-2.3c-7.9-4.2-15.9-8.3-24.1-11.9
								c-8.1-3.7-16.2-6.8-24.2-9.5c-0.7-0.2-1.3-0.4-2-0.7c-31.3-10.3-61.5-13.2-88.2-8.6v-1c34.3-5.8,74.2,0.6,114.8,18.9
								c9.6,4.3,19,9.2,28.3,14.2c1.2,0.7,2.5,1.4,3.7,2.1c14.7,8.2,29,17.1,43.1,25.8c21.2,13.1,43.1,26.7,65.9,37.8
								C378.5,295.2,524.6,285.1,632.9,214.6z"/>
						</g>
						<g>
							<path style="fill:#A1D0CB;" d="M632.9,99.5v1c-8.4-1.8-17.2-2.8-26.3-3c-28.8-0.8-57.1,5.8-81,12.4
								c-29.7,8.1-59.4,18.2-88.1,27.9c-40.8,13.9-83.1,28.2-126,37.2c-24.6,5.1-53.5,9.2-83.9,9.2c-24.4,0-49.7-2.6-74.5-9.2
								c-1.4-0.4-2.8-0.8-4.1-1.1c-18.8-5.4-37.2-13.2-54.7-24l0.3-0.4l0.2-0.4c0.6,0.4,1.2,0.7,1.7,1.1
								c15.5,9.4,31.7,16.4,48.2,21.5c1.5,0.5,3.1,0.9,4.6,1.4c56.8,16.3,116.8,10.6,161.9,1.2c42.8-9,85-23.3,125.8-37.1
								c28.7-9.8,58.4-19.8,88.1-28c24-6.6,52.5-13.2,81.3-12.5C615.7,96.7,624.5,97.7,632.9,99.5z"/>
						</g>
						<g>
							<path style="fill:#A1D0CB;" d="M632.9,67.6v1.2c-49.3-27.8-105.6-33-147.3-31.7c-51.2,1.5-102.2,12.4-151.6,23
								c-11.1,2.4-22.5,4.8-33.8,7.1c-60.1,12.3-124.4,22.2-186.9,11.3C72,71.3,35,54.8,6.3,31.5v-1.3C34.9,53.6,72,70.3,113.5,77.5
								c62.4,10.8,126.5,1,186.5-11.3c11.3-2.3,22.7-4.8,33.8-7.1c49.4-10.6,100.5-21.5,151.8-23C527.3,34.8,583.5,40,632.9,67.6z"
								/>
						</g>
						<g>
							<path style="fill:#A1D0CB;" d="M632.9,297.7v1c-13-2.2-26.3-1.4-38.7-0.1c-60.2,6-119.6,24.5-173.2,53.3h-2.1
								c54.1-29.4,114.3-48.2,175.2-54.3C606.5,296.3,619.8,295.5,632.9,297.7z"/>
						</g>
					</g>
				</g>
			</g>
		</g>
		<g>
			<g>
				<defs>
					<path id="SVGID_00000159442731115959965740000007871051230611710636_" d="M15.4,268.4c7.2,9.2,18.4,8.8,28.7,8.4
						c9.9-0.4,19.2,1.2,28,6c8.1,4.4,14.3,13.1,21.1,19.7c33.7,32.5,74.2,52.3,120.6,52.3c34.3,0,68-9.8,98.9-24.9
						c19.8-9.6,40.4-21.4,54.3-39.6c14.4-18.9,21.1-45.3,20.1-69.1c-0.6-13.8-4.1-28.1-12.2-39.2c-9.2-12.5-23.6-16.7-36.8-22.9
						c-21.2-10,34.2-46.2,33.4-70.2c-1.9-64.2-106.4-26.3-122.4-47.1c-16.1-21-40.4-34.1-65.7-39.1s-51.5-2.6-76.5,3.6
						C83.2,12.2,59.3,22,42.6,40.5c-19.9,22-27.1,55.6-18.3,84.4c4.2,13.7,11.9,27.3,9.5,41.4c-2.2,13.1-12.4,22.9-21,32.8
						C-4.9,219.8-4.4,249.1,15.4,268.4"/>
				</defs>
				<clipPath id="SVGID_00000017481709583900680460000016518551143424813953_">
					<use xlink:href="#SVGID_00000159442731115959965740000007871051230611710636_"  style="overflow:visible;"/>
				</clipPath>
				<g style="clip-path:url(#SVGID_00000017481709583900680460000016518551143424813953_);">
					<g>
						<path style="fill:#001736;" d="M154.9,152.5c1.4,11.5,9.1,21.6,18.9,27.8c9.8,6.2,21.4,8.9,33,9.7c20.8,1.4,41.6-2.9,62.2-5.8
							c20.7-2.9,42.3-4.3,62,2.6c19.7,6.9,37.1,24,38.6,44.8c-12.8,14.1-14.8,36-21,54c-8.1,23.4-27.7,42.4-51.4,49.7
							c-22.9,7.1-48,3.4-71.1,9.7c-25.8,6.9-48.6,25.9-75.3,25.4c-22.8-0.4-43.3-15.6-55.5-34.8c-12.1-19.3-17.1-42.1-20.3-64.7
							c-3.2-22.5-4.8-45.4-11.1-67.3c-2.4-8.2-5.5-16.8-3.8-25.2c2.4-11.9,13.5-20,24.7-24.7C106.9,144.2,132.2,145,154.9,152.5z"/>
						<g>
							<path style="fill:#001736;" d="M311.1,194.8c-1.2-12.6-10.8-24.3-24.4-29.7c-11.1-4.4-24.6-5.1-40.2-1.9
								c-8.6,1.7-17.1,4.4-25.3,7c-4.7,1.5-9.5,3-14.3,4.3c-16.7,4.7-29.4,5.8-41.1,3.9l0.3-1.5c11.4,1.9,23.9,0.8,40.4-3.8
								c4.8-1.3,9.6-2.8,14.2-4.3c8.3-2.6,16.8-5.3,25.5-7c15.9-3.2,29.7-2.5,41.1,2c14.1,5.7,24.1,17.8,25.4,31H311.1z"/>
						</g>
					</g>
					<g>
						<g>
							<path style="fill:#F0BC88;" d="M246.8,238.7c0,0,2.7-26.3,4.1-28.4c1.4-2.1,19.4-23.3,19.4-23.3l-0.3,2.7l4.1,11.5
								l-12.8,37.4l-6,5.6L246.8,238.7z"/>
							<g>
								<path style="fill:#E4771A;" d="M285.2,237c0,0-3.5,10.4-9.1,24.8c-0.4,1-0.8,1.9-1.1,2.9c-11.4,28.6-30.4,70.3-48.3,80.3
									c-9.6,5.4-30.8,1-54.4-7.1c-1-0.3-2-0.7-3-1c-43.9-15.5-94.8-42.6-94.8-42.6s23.7-34.6,24.2-35.3
									c0.4-0.5,59.3,13.8,88.1,20.9c1.1,0.3,2.1,0.5,3.1,0.8c7.6,1.9,12.5,3.1,12.5,3.1l33.7-37.5l2.1-2.3l6.3-7
									C244.3,236.9,268.6,242.2,285.2,237z"/>
								<g style="opacity:0.5;">
									<g>
										<g>
											<path style="fill:#E4771A;" d="M189.8,280.8c-5.2,11.8-9.9,24-13.3,36.7c-1.9,7.1-3.3,14-4.3,20.7c-1-0.3-2-0.7-3-1
												c0.9-6.7,2.4-13.5,4.2-20.5c3.4-12.6,8.1-24.8,13.3-36.6C187.8,280.2,188.8,280.5,189.8,280.8z"/>
										</g>
										<g>
											<path style="fill:#E4771A;" d="M276.1,261.9c-0.4,1-0.8,1.9-1.1,2.9c-14-3.8-27.3-10.1-39-18.5l2.1-2.3
												C249.4,252.1,262.5,258.2,276.1,261.9z"/>
										</g>
									</g>
								</g>
							</g>
						</g>
						<g>
							<g>
								<path style="fill:#FFCE9E;" d="M259.9,246.6c1-9.8-0.2-19.8,0.2-29.7c0.4-9.9,2.9-20.3,9.9-27.2c3.4,4,4.6,9.9,4.4,15.2
									c-0.1,5.3-1.6,10.4-3.2,15.4C268.1,229.7,264.5,237.7,259.9,246.6z"/>
								<g>
									<g>
										<path style="fill:#305450;" d="M270.3,168.5c-2.4,1.4-4.7,2.9-7.5,3.4c-1.6,0.3-3.7,0.7-5.4,0.5l-0.9,1.6
											c6.2,0.9,16.6-1.5,16.6-1.5l-0.3-5.4C272,167.5,271.1,168,270.3,168.5z"/>
										<path style="fill:#6ABFB7;" d="M293.1,126.9c1.8,24.4-8.5,45-23.1,46.1c-2.8,0.2-5.6-0.3-8.2-1.5
											c12.2-1.3,20.6-20.7,18.8-43.7c-1.7-23-13-40.9-25.2-40.4c0.5-0.3,1-0.6,1.5-0.8l-6-0.9l12.4-0.9
											C278,83.6,291.3,102.5,293.1,126.9z"/>
										<path style="fill:#3C6D67;" d="M261.8,171.5c2.7-0.3,5.2-1.5,7.5-3.4c-3.4,3.4-7.4,5.5-11.7,5.8
											c-14.6,1.1-27.9-17.8-29.7-42.1c-1.8-24.4,8.5-45,23.1-46.1c4.4-0.3,8.6,1.1,12.5,4c-2.5-1.6-5.2-2.4-8-2.3
											c-0.1,0-0.2,0-0.3,0c-12.3,0.9-20.9,20.5-19.2,43.7c1.8,23.2,13.2,41.3,25.5,40.4C261.6,171.5,261.7,171.5,261.8,171.5z"
											/>
										<path style="fill:#026154;" d="M263.5,89.7c8.4,5.2,15.2,19,17,35.8C278.8,109.5,272.1,96.1,263.5,89.7z"/>
										<path style="fill:#026154;" d="M280.8,129.1c1,17.3-3.7,32.4-11.4,38.9C277.1,160.3,281.7,145.7,280.8,129.1z"/>
										
											<rect x="271.2" y="171.3" transform="matrix(0.9788 -0.2046 0.2046 0.9788 -34.077 60.6064)" style="fill:#6ABFB7;" width="9.7" height="47.6"/>
									</g>
									<path style="opacity:0.42;fill:#C0FFF8;enable-background:new    ;" d="M280.7,127.8c1.7,23-6.7,42.4-18.8,43.7
										c-0.1,0-0.2,0-0.3,0c-12.3,0.9-23.8-17.1-25.5-40.4c-1.7-23.2,6.8-42.8,19.2-43.7c0.1,0,0.2,0,0.3,0
										C267.7,86.9,279,104.8,280.7,127.8z"/>
									<path style="opacity:0.42;fill:#C0FFF8;enable-background:new    ;" d="M258.3,114.7c-1.8,12-7.8,21-13.4,20.1
										c-5.6-0.9-8.6-11.2-6.7-23.2c1.8-12,7.8-21,13.4-20.1C257.1,92.4,260.1,102.8,258.3,114.7z"/>
								</g>
								<g>
									<path style="fill:#FFCE9E;" d="M268,216.3l12.3-24.2l-2.4-11c0,0,9.9,4.2,11.6,11.2c0,0,7.6,2.6,6.7,10.6
										c0,0,6.1,6.4,4.8,11.2c0,0,3.1,4.3,1.7,7.9c-1.4,3.6-11,21.4-11.7,26.6c0,0-31.6,23.3-37.4,22.7
										C247.9,270.7,268,216.3,268,216.3z"/>
									<g>
										<path style="fill:#001736;" d="M280.3,192.1c-1.1,3-2.4,5.9-3.9,8.8c-1.5,2.8-3,5.6-4.8,8.3c1.1-3,2.4-5.9,3.9-8.8
											S278.5,194.7,280.3,192.1z"/>
									</g>
								</g>
							</g>
							<g>
								<g>
									<path style="fill:#FFCE9E;" d="M104.6,196.1l-44,64.8c0,0,21.2,24.1,51.4,26.1l24.6-66.3L104.6,196.1z"/>
									<path style="fill:#FFB48C;" d="M133.8,228.2c0,0-17.8,0-28.8-14.3c0,0,4.6,24,23.3,29.1L133.8,228.2z"/>
								</g>
								<g>
									<path style="fill:#F6AF39;" d="M292.4,244.2c0,0-4.7,23.9-12.5,51c-0.3,1-0.6,2-0.9,3c-8.4,28.8-20.1,60.3-33.1,69.9
										c-6,4.4-17.8,5.1-32.4,3.5c-1.1-0.1-2.2-0.3-3.4-0.4c-12.7-1.6-27.2-4.8-41.7-8.6H3.1c0,0,2.1-24.2,11.7-50.8
										c0.4-1,0.7-2,1.1-3c6.5-17.2,16.2-35.1,30.4-47.9c1.7-1.6,3.4-2.9,5-4l2.5-2l2.6-2.1l7.8-6.3v-16.3c0,0,2.7,0.8,7,2.2
										c5.7,1.8,14.2,4.5,22.9,7.4c16.8,5.5,34.3,11.6,34.3,12.8s-3,9.8-6.1,18.4c0.9,0.9,1.8,1.8,2.7,2.6
										c1.2,1.1,2.5,2.1,3.8,3.2c5.2,4,11,7.1,17,9.7c3.2,1.4,7.6,3.9,12.5,6.9c1,0.3,2,0.6,3.1,0.9c1.3,0.4,2.7,0.8,4,1.2
										c17.8,5.4,36,10.9,44.3,13.4c1.3,0.4,2.4,0.7,3.2,1c1,0.3,1.5,0.5,1.5,0.5l22-35.7l1.7-2.8l14-22.7
										C251.9,249.2,276.6,251.4,292.4,244.2z"/>
									<g>
										<g>
											<g>
												<path style="fill:#F4CE95;" d="M128.7,276.8c-0.4,0-0.8,0-1.1,0c-9.8,0-19.6-1.1-29.3-3.2c-15.8-3.5-30.9-9.8-44.5-18.6
													l2.6-2.1c13,8.3,27.4,14.3,42.6,17.6c8.6,1.9,17.3,2.9,26,3.1C126.1,274.7,127.4,275.8,128.7,276.8z"/>
											</g>
											<g>
												<path style="fill:#F4CE95;" d="M165.2,295.5c-5.3,3.2-9.9,7.4-13.7,11.1c-1.8,1.8-3.7,3.7-5.4,5.6
													c-5.3,5.6-10.8,11.4-17.4,15.8c-10.1,6.7-22.7,10.3-36.6,10.3c-0.3,0-0.7,0-1,0c-11.5-0.1-24-2.7-38.3-7.7
													c-14-4.9-26.7-11.2-37.9-18.7c0.4-1,0.7-2,1.1-3c11.1,7.5,23.8,13.8,37.9,18.7c14,4.9,26.1,7.4,37.3,7.5
													c13.7,0.2,26.1-3.2,35.9-9.7c6.3-4.2,11.7-9.9,16.9-15.3c1.8-1.9,3.6-3.8,5.5-5.6c3.3-3.3,7.3-7,11.9-10.1
													C162.6,294.7,163.9,295.1,165.2,295.5z"/>
											</g>
											<g>
												<path style="fill:#F4CE95;" d="M213.6,371.7c-1.1-0.1-2.2-0.3-3.4-0.4c-1.3-4.5-2.2-9.5-2.5-14.8
													c-0.5-8.3,0.2-16.7,0.8-24.8c0.2-2.9,0.5-5.9,0.7-8.8c0.3-4.4,0.5-9.1,0.3-14c1.3,0.4,2.4,0.7,3.2,1
													c0.2,4.6,0,9-0.3,13.2c-0.2,3-0.4,6-0.7,8.9c-0.7,8-1.3,16.2-0.8,24.3C211.2,361.9,212.1,367,213.6,371.7z"/>
											</g>
											<g>
												<path style="fill:#F4CE95;" d="M280,295.2c-0.3,1-0.6,2-0.9,3c-2.8-0.7-5.5-1.5-8.2-2.4c-10.5-3.5-24.1-9.9-34.7-21.2
													l1.7-2.8c10.2,11.2,23.7,17.5,34,21C274.6,293.7,277.3,294.5,280,295.2z"/>
											</g>
										</g>
									</g>
									<g>
										<g>
											<path style="fill:#001736;" d="M209.3,324.3c0.3-4.7,1.8-9.2,4.2-13.3l0.3-0.5l0.5,0.4c1.5,1.2,2.8,2.7,3.9,4.2
												c1.1,1.5,2.1,3.1,3.1,4.7c-2.6-2.7-4.8-5.8-7.7-8.1l0.8-0.1C212.1,315.5,210.5,319.8,209.3,324.3z"/>
										</g>
										<g>
											<path style="fill:#001736;" d="M68.7,326.6c5.9,3.9,11.9,7.6,18,11.1s12.3,6.8,18.7,9.8c6.3,3.1,12.8,5.8,19.4,8.4
												l4.9,1.9l5,1.8l5,1.7l5,1.6l-5.1-1.4l-5.1-1.5l-5-1.6l-5-1.7c-6.6-2.4-13.2-5.2-19.6-8.2c-6.4-3.1-12.6-6.4-18.7-10
												C80.2,334.7,74.3,330.8,68.7,326.6z"/>
										</g>
									</g>
								</g>
							</g>
						</g>
					</g>
					<g>
						<g>
							<g>
								<path style="fill:#FFCE9E;" d="M164.2,178.6c0.2,2.5,0.4,5.1,0.4,7.5c0,1,0,2-0.1,2.9c-0.6,15.5-6.4,28.8-19,34.8h-0.1
									c-33.7,15.7-56.9,1.2-72-29.9c0,0-40.1-69.6,28.7-84.6c15-3.3,28.7,3.7,39.4,15.6c0.9,1,1.7,2,2.5,3
									c3.7,4.7,7.1,9.9,9.9,15.5c2.3,4.5,4.2,9.3,5.8,14.2c2.1-1.1,5.5-2.9,6.2-2.9c1,0,4.4,13.5-2.1,21.4
									C164.1,177,164.2,177.8,164.2,178.6z"/>
								<path style="fill:#FFB48C;" d="M154,143.5c-7.7,5.2-17.6,7.1-26.7,5c-7-1.7-13.3-5.7-17.9-11.1c-0.3,1.7-0.6,3.4-0.7,5.1
									c-0.2,4.1,0.6,8.3,1.1,12.4c0.5,4.1,0.6,8.4-1.1,12.2c-1.6,3.8-5.4,6.9-9.6,6.7c-1.9-7.6-3.6-14.8-4.1-22.6
									c-0.3-4.6-0.3-9.3,0.6-13.8c0.9-4.6,2.6-9,5.6-12.5c1-1.2,2.2-2.3,3.6-3s3.3-0.1,4.7,0.5c0.3,0.7,0.5,1.4,0.7,2.1
									c1-0.4,2-0.8,2.9-0.9c8.5-1.7,17.5-2.2,25.8,0.5c0.9,0.3,1.8,0.6,2.6,1C146.3,130.4,150.5,136.7,154,143.5z"/>
							</g>
							<g>
								<g>
									<path style="fill:#001736;" d="M161.5,174.1c0-0.6,0.2-1,0.5-1.4c0.3-0.3,0.7-0.6,1.3-0.7c0,0.6-0.2,1-0.5,1.4
										C162.4,173.8,162.1,174.1,161.5,174.1z"/>
								</g>
								<circle style="fill:#FFB48C;" cx="132.6" cy="187" r="13.2"/>
								<g>
									<path style="fill:#001736;" d="M159.3,191.8c0.8-0.2,1.5-0.2,2.2-0.2c0.7,0.1,1.4,0.2,2.1,0.5c-0.7,0.5-1.5,0.6-2.2,0.5
										C160.7,192.6,159.9,192.4,159.3,191.8z"/>
								</g>
								<circle style="fill:#001736;" cx="149.1" cy="156.9" r="3.6"/>
								<path style="fill:#FFFFFF;" d="M164.6,186.1c0,1,0,2-0.1,2.9c-3.7,0.5-7.6-0.3-10.7-2.3c-3.2-2.1-5.7-5.2-6.8-8.8
									c-0.2-0.8,0.6-1.4,1.3-1.1c4.9,2.6,10.7,3.2,16,1.8C164.5,181.1,164.6,183.7,164.6,186.1z"/>
								<g>
									<path style="fill:#001736;" d="M83.5,191.5c-3.2-1-6-3.5-7.2-6.7s-1.1-7,0.7-10c0.5-0.7,1.1-1.4,1.8-1.9
										c0.8-0.5,1.7-0.7,2.6-0.8c1.8-0.1,3.5,0.4,5,1.3c3.1,1.7,5.2,5,5.4,8.4l0,0l-0.5,0.1c-0.3-0.9-1.1-1.4-1.9-1.8
										c-0.9-0.3-1.8-0.6-2.6-0.4c-0.8,0.2-1.6,0.6-2.1,1.3c-0.5,0.6-0.8,1.5-0.8,2.3c0,1.7,1.3,3.3,3.1,3.8
										c0.9,0.3,1.9,0.2,2.9,0.3c0.5,0.1,1.1,0.2,1.5,0.5c0.5,0.3,0.8,0.7,1,1.2c-0.5-0.9-1.6-1.2-2.5-1.2c-1,0-2,0.3-3.1,0.1
										s-2.1-0.7-2.9-1.6c-0.8-0.8-1.3-2-1.4-3.1c-0.1-1.2,0.2-2.4,1-3.3c0.8-0.9,1.9-1.6,3-1.7c0.6-0.1,1.2,0,1.8,0.1
										c0.5,0.2,1.1,0.4,1.5,0.7c0.5,0.3,0.9,0.7,1.3,1.1c0.3,0.5,0.6,1,0.6,1.6c0,0.1-0.1,0.2-0.2,0.2s-0.2-0.1-0.2-0.2l0,0
										c-0.6-3.2-2.6-6.1-5.4-7.7c-1.4-0.8-3-1.3-4.6-1.3c-0.8,0-1.6,0.2-2.2,0.6c-0.7,0.4-1.2,1-1.6,1.7c-1.7,2.8-2,6.4-0.9,9.5
										C77.8,187.8,80.4,190.4,83.5,191.5z"/>
								</g>
								<g>
									<path style="fill:#002557;" d="M131.3,144.7c0.3-1.9,1.2-3.7,2.3-5.2s2.3-2.9,3.8-4.1c1.4-1.2,3-2.2,4.9-2.9
										c0.9-0.3,1.9-0.5,3-0.6c1-0.1,2.2,0.1,3.3,0.5c1.2,0.5,1.7,1.8,1.3,2.9c-0.2,0.4-0.4,0.7-0.7,0.9l-0.6,0.5
										c-1.2,0.9-2.3,1.5-3.6,2.2s-2.6,1.3-4.1,1.9l-4.4,2l-4.8,2.1l0,0C131.6,144.9,131.5,144.9,131.3,144.7
										C131.3,144.8,131.3,144.7,131.3,144.7z"/>
								</g>
							</g>
						</g>
						<g>
							<g>
								<path style="fill:#001736;" d="M82.1,110.1l-1.3-0.7c1.5-2.9,2.3-5.9,2.4-8.8c0.1-3.2-0.9-6.2-2.6-8.5
									c-2-2.8-5.4-4.7-9.2-5.4c-3.3-0.6-7-0.3-11,1c-1.7,0.5-2.6,1.2-2.7,2.1l-1.5-0.2c0.2-1.5,1.5-2.6,3.8-3.3
									c4.2-1.3,8.1-1.7,11.7-1c4.2,0.7,7.9,2.9,10.1,6c1.9,2.6,2.9,5.9,2.9,9.4C84.6,103.7,83.8,107,82.1,110.1z"/>
							</g>
							<g>
								<path style="fill:#001736;" d="M56.8,140.5c-4.1,0-8.2-0.9-11.9-2.5c-5.2-2.4-9.4-6.2-11.7-10.9c-2.3-4.6-2.8-10.1-1.9-17.2
									c0.2-1.6,0.6-3.5,1.8-5l1.2,0.9c-1,1.2-1.2,2.7-1.4,4.2c-1,6.8-0.4,12,1.7,16.3c2.1,4.3,6.1,8,10.9,10.2
									c4.6,2.1,10.2,2.8,15.4,2.1v-0.2l6.4,0.6l-5.5,1C60.3,140.3,58.6,140.5,56.8,140.5z"/>
							</g>
							<path style="fill:#001736;" d="M164.8,155.2c-1.4,0.6-3.5,1.7-5,2.5c-2.2-6.8-5.2-13.5-8.8-19.6c-2.4,1.8-5.2,3.3-8.1,4.2
								c-5.8,1.8-12.3,1.5-17.9-0.8c-6.4-2.6-11.5-8.2-18.3-9.6c-2.5,1.6-3.3,4.9-2.9,7.8c0.4,2.9,1.6,5.6,2.4,8.5
								c1.3,5.1,0.9,10.7-1.3,15.5c-1,2.3-2.4,4.4-4.1,6.2c0.4,1.6,0.7,3.3,1,4.9c0.6,3,1.7,6.1,4.1,8c1.7,1.3,3.9,1.8,6,1.8
								s4.2-0.4,6.3-0.9c-1.3,2.7-3.5,4.6-6.3,5.6s-6.1,0.9-8.8-0.3c-1.1-0.5-2.1-1.2-3.1-2c-2-1.8-3.5-4.1-4.3-6.7l-3.9-11.8
								c0,0-14.2-8.3-19.6,4.7c-2.2,5.3-0.4,12.5,3.6,18.3c0.9,1.3,1.8,2.4,2.9,3.5l0.1,0.1c0.7,0.7,1.4,1.3,2.1,1.9
								c0.1,0.1,0.1,0.1,0.2,0.2c0.7,0.5,1.5,1,2.2,1.5c0.1,0.1,0.2,0.1,0.3,0.2c0.4,0.2,0.8,0.4,1.2,0.6c1.5,0.7,3.1,1.1,4.7,1.3
								c2.5,4.9,5.4,9.7,7,14.9c2.4,7.9,1.5,16.7-2.4,24c-8.7-2.9-17.2-5.6-22.9-7.4c1.2-6,2.1-11.9,1.6-18.4c-0.2-2-0.4-4-0.5-6
								l-0.4,0.1c-0.6-1.2-1.1-2.5-1.7-3.7c-9.5-10-14.8-23.5-17.1-37.1c-1.7-10.1-2.5-20.5-2.6-30.9c-0.2,0-0.4,0-0.6-0.1
								c-3.3-0.5-6.4-2.4-8.9-4.6c-6.5-5.7-10.5-14.5-9.3-23.1c0.9-6.1,4.3-11.6,9-15.5s10.6-6.3,16.6-7.2c4.1-0.6,8.4-0.6,12.2,1.1
								c4.3,1.9,7.6,5.7,9.7,9.9c1.3,2.5,2.2,5.3,2.9,8c0.1,0.3,0.2,0.5,0.2,0.8c12.4-4.5,25.3-7.6,38.4-5.9
								c14.1,1.9,27.8,8.9,36,20.5C163.8,130.3,166.1,142.8,164.8,155.2z"/>
						</g>
					</g>
				</g>
			</g>
		</g>
		<g>
			<g>
				<defs>
					<path id="SVGID_00000088135078176020986660000006512203849620382899_" d="M15.4,268.4c7.2,9.2,18.4,8.8,28.7,8.4
						c9.9-0.4,19.2,1.2,28,6c8.1,4.4,14.3,13.1,21.1,19.7c33.7,32.5,74.2,52.3,120.6,52.3c34.3,0,68-9.8,98.9-24.9
						c19.8-9.6,40.4-21.4,54.3-39.6c14.4-18.9,21.1-45.3,20.1-69.1c-0.6-13.8-4.1-28.1-12.2-39.2c-9.2-12.5-23.6-16.7-36.8-22.9
						c-21.2-10,34.2-46.2,33.4-70.2c-1.9-64.2-106.4-26.3-122.4-47.1c-16.1-21-40.4-34.1-65.7-39.1s-51.5-2.6-76.5,3.6
						C83.2,12.2,59.3,22,42.6,40.5c-19.9,22-27.1,55.6-18.3,84.4c4.2,13.7,11.9,27.3,9.5,41.4c-2.2,13.1-12.4,22.9-21,32.8
						C-4.9,219.8-4.4,249.1,15.4,268.4"/>
				</defs>
				<clipPath id="SVGID_00000039126450958957936760000010904397196741082513_">
					<use xlink:href="#SVGID_00000088135078176020986660000006512203849620382899_"  style="overflow:visible;"/>
				</clipPath>
				<g style="clip-path:url(#SVGID_00000039126450958957936760000010904397196741082513_);">
					<g>
						<g>
							<path style="fill:#6ABFB7;" d="M490.2,286.5c0,0.3,0,0.7-0.1,1c-0.2,1.8-0.4,3.5-0.8,5.3c-0.4,1.9-0.9,3.7-1.5,5.5
								c-0.1,0.4-0.3,0.8-0.4,1.2c-1,2.7-2.1,5.2-3.5,7.6c-0.3,0.5-0.5,0.9-0.8,1.3c-10.5,17.2-31.1,26.8-52,22.4
								c-11.5-2.4-21.2-8.6-28.1-17.1c-0.2-0.3-0.5-0.6-0.7-0.9c-8.5-11-12.3-25.5-9.2-40.2c0.2-1,0.5-2,0.7-3
								c0.1-0.3,0.2-0.6,0.3-1c1-3.4,2.4-6.6,4-9.7c0.2-0.3,0.3-0.6,0.5-0.9c2.4-4.2,5.5-8,9-11.3c0.2-0.2,0.5-0.5,0.7-0.7
								c11.2-10.1,27-14.9,43-11.6c11.6,2.4,21.4,8.7,28.2,17.3c0.2,0.3,0.5,0.6,0.7,0.9C487.4,262.2,491.2,274.1,490.2,286.5z"/>
							<g style="opacity:0.5;">
								<g>
									<path style="fill:#0055C4;" d="M480.2,252.8c-0.9,0.1-1.7,0.2-2.5,0.3c-4.5,0.7-8.8,2.1-13.1,3.4c-1.8,0.6-3.6,1.1-5.5,1.7
										c-7.1,2-13.7,3-19.7,3c-2.9,0-5.8-0.2-8.5-0.7c-9.8-1.7-18.2-6.7-23.3-13.7c0.2-0.2,0.5-0.5,0.7-0.7
										c4.9,6.9,13.1,11.7,22.7,13.4c8.2,1.4,17.3,0.7,27.8-2.3c1.8-0.5,3.7-1.1,5.4-1.7c4.3-1.4,8.7-2.8,13.2-3.4
										c0.6-0.1,1.3-0.2,2-0.2C479.7,252.2,480,252.5,480.2,252.8z"/>
								</g>
								<g>
									<path style="fill:#0055C4;" d="M438.1,279c-0.9,1.3-2.5,1.6-4,1.9c-2.1,0.3-4.2,0.4-6.3,0.4c-7,0-13.9-1.6-20.2-4.6
										c-1.8-0.8-3.5-1.8-5.2-2.8c-2.8-1.6-5.7-3.2-8.8-4.3c0.1-0.3,0.2-0.6,0.3-1c3.1,1.1,6.1,2.7,9,4.4c1.7,0.9,3.4,1.9,5.1,2.7
										c8,3.8,17.1,5.3,25.9,4.1c1.2-0.2,2.6-0.5,3.3-1.4c0.6-0.9,0.4-2.2-0.1-3.1c-0.6-1.1-1.6-1.8-2.6-2.5
										c-10.7-7.8-24-11.2-36.5-13.7c0.2-0.3,0.3-0.6,0.5-0.9c12.6,2.5,25.8,6,36.6,13.8c1,0.7,2.2,1.6,2.9,2.9
										C438.9,276.2,438.9,277.9,438.1,279z"/>
								</g>
								<g>
									<path style="fill:#0055C4;" d="M483.9,307c-0.3,0.5-0.5,0.9-0.8,1.3c-3,1.1-5.8,2.5-8.6,4c-2.2,1.1-4.5,2.3-6.8,3.2
										c-6.7,2.9-14.1,4.3-21.5,4.3c-3,0-5.9-0.2-8.8-0.7c-3.8-0.6-7.6-1.7-11.3-2.7c-3.7-1-7.5-2.1-11.4-2.7
										c-2.9-0.5-7.2-0.9-11.6-0.1c-0.2-0.3-0.5-0.6-0.7-0.9c4.7-0.9,9.4-0.5,12.5,0c3.9,0.6,7.8,1.7,11.5,2.7
										c3.6,1,7.4,2.1,11.2,2.7c9.9,1.6,20.5,0.4,29.8-3.6c2.3-1,4.5-2.1,6.7-3.2C477.2,309.8,480.5,308.2,483.9,307z"/>
								</g>
								<g>
									<path style="fill:#0055C4;" d="M401.9,294.3c-0.4,0.7-0.2,1.5,0,1.9c0.4,1,1.2,1.8,2.2,2.2c1.7,0.7,3.8,0.4,5.7,0.1
										c13.8-1.9,27.8-2,41.5-0.4c2,0.2,4,0.5,6,0.8c5.8,0.8,11.7,1.6,17.6,1.5c3.8-0.1,8.5-0.6,13-2.3c-0.1,0.4-0.3,0.8-0.4,1.2
										c-4.4,1.5-8.9,2-12.5,2.1c-0.4,0-0.9,0-1.3,0c-5.5,0-11.1-0.8-16.4-1.5c-2-0.3-4-0.6-6-0.8c-13.7-1.7-27.5-1.6-41.2,0.4
										c-2.1,0.3-4.3,0.6-6.3-0.2c-1.2-0.5-2.3-1.6-2.8-2.8c-0.3-1-0.3-1.9,0.1-2.8c1-1.9,3.4-2.3,5.5-2.5l83.7-4.9
										c0,0.3,0,0.7-0.1,1l-83.6,4.9C404.7,292.5,402.6,292.8,401.9,294.3z"/>
								</g>
							</g>
						</g>
						<g>
							<path style="fill:#A1D0CB;" d="M514,240c-0.2,1-0.5,2-0.9,2.9c-0.1,0.4-0.3,0.7-0.4,1c-3,6.2-9.5,10.1-16.5,9.6
								c-0.3,0-0.7,0-1-0.1c-0.5-0.1-0.9-0.1-1.4-0.2c-8-1.7-13.4-8.6-13.6-16.4c0-0.3,0-0.7,0-1c0-0.9,0.1-1.9,0.4-2.8
								c0.5-2.6,1.6-4.9,3.1-6.8c0.2-0.3,0.5-0.6,0.7-0.9c3.9-4.5,10.1-6.8,16.4-5.5c5.4,1.1,9.6,4.7,11.9,9.2
								c0.2,0.3,0.3,0.6,0.4,0.9c0.6,1.5,1.1,3.1,1.2,4.8c0,0.4,0.1,0.8,0.1,1.2C514.4,237.3,514.3,238.7,514,240z"/>
							<g style="opacity:0.5;">
								<g>
									<path style="fill:#A1D0CB;" d="M513.1,230c-2.8,1.2-5.8,1.9-8.7,1.9c-0.8,0-1.6,0-2.4-0.1c-3.4-0.4-6.7-1.7-9.8-2.9
										c-1.3-0.5-2.6-1-3.9-1.4c-1.6-0.5-3.1-0.9-4.6-1.2c0.2-0.3,0.5-0.6,0.7-0.9c1.3,0.3,2.7,0.6,4.2,1.1
										c1.3,0.4,2.6,0.9,3.9,1.4c3.1,1.2,6.3,2.4,9.6,2.8c3.5,0.4,7.2-0.2,10.5-1.6C512.8,229.4,512.9,229.7,513.1,230z"/>
								</g>
								<g>
									<path style="fill:#A1D0CB;" d="M514.4,236c-2.9,2.2-6.7,3.5-11,3.8c-0.6,0-1.1,0-1.7,0c-4,0-8-0.8-11.9-1.5
										c-0.7-0.1-1.3-0.2-2-0.4c-2.4-0.4-4.9-0.9-7.6-1c0-0.3,0-0.7,0-1c2.7,0.2,5.3,0.6,7.7,1.1c0.7,0.1,1.3,0.2,2,0.4
										c4.4,0.8,8.9,1.7,13.3,1.4c4.4-0.2,8.3-1.7,11-4C514.3,235.2,514.4,235.6,514.4,236z"/>
								</g>
								<g>
									<path style="fill:#A1D0CB;" d="M513.1,242.9c-0.1,0.4-0.3,0.7-0.4,1c-5.5,0.2-10.9,2.6-14.7,6.5c-0.5,0.6-1.6,1.8-1.8,3.1
										c-0.3,0-0.7,0-1-0.1c0.2-1.2,0.9-2.4,2-3.7C501.3,245.5,507.2,243.1,513.1,242.9z"/>
								</g>
							</g>
						</g>
						<g>
							<path style="fill:#6ABFB7;" d="M119.4,68.4c0,0.3,0,0.7-0.1,1c-0.1,1-0.2,2-0.4,3c-0.6,2.9-1.7,5.6-3.1,8
								c-0.2,0.3-0.4,0.6-0.6,0.9c-3.9,6-10.1,10.3-17.2,11.6c-0.4,0.1-0.8,0.1-1.2,0.2c-3,0.4-6.1,0.4-9.2-0.3
								c-7.4-1.6-13.4-6.1-17.1-12c-0.2-0.3-0.4-0.7-0.6-1.1C67,74.4,65.8,68,67.2,61.6c0.9-4.1,2.6-7.8,5-10.9
								c0.2-0.3,0.4-0.5,0.6-0.8c6.1-7.2,15.8-10.9,25.6-8.8c9.3,1.9,16.4,8.5,19.4,16.8c0.1,0.3,0.2,0.6,0.3,0.9
								C119.1,61.9,119.5,65.1,119.4,68.4z"/>
							<g style="opacity:0.5;">
								<g>
									<path style="fill:#0055C4;" d="M118.1,58.9c-5.1,1.9-10.6,2.9-16,2.9c-2.8,0-5.7-0.3-8.5-0.8c-7.9-1.5-15.3-5.1-21.4-10.2
										c0.2-0.3,0.4-0.5,0.6-0.8c6,5.1,13.2,8.6,21,10c8.1,1.5,16.4,0.8,24-2C117.9,58.3,118,58.6,118.1,58.9z"/>
								</g>
								<g>
									<path style="fill:#0055C4;" d="M101.4,70.4c-0.3,1,0.2,2.1,1.6,3.4c3.5,3.4,8,5.7,12.8,6.6c-0.2,0.3-0.4,0.6-0.6,0.9
										c-4.8-1-9.4-3.4-13-6.8c-1.6-1.6-2.2-3-1.8-4.4c0.5-1.6,2.1-2.5,4.8-2.7c4.7-0.3,9.5,0,14.1,1c0,0.3,0,0.7-0.1,1
										c-4.6-1-9.3-1.3-14-1C103.7,68.5,101.8,68.9,101.4,70.4z"/>
								</g>
								<g>
									<path style="fill:#0055C4;" d="M98,92.9c-0.4,0.1-0.8,0.1-1.2,0.2c-7-6.9-16.5-11.4-26.3-12.3c-0.2-0.3-0.4-0.7-0.6-1.1
										C80.4,80.6,90.6,85.3,98,92.9z"/>
								</g>
							</g>
						</g>
						<g>
							<path style="fill:#6ABFB7;" d="M250.4,4c0,0.3,0,0.7-0.1,1c-0.1,1-0.2,2-0.4,3c-0.6,2.9-1.7,5.6-3.1,8
								c-0.2,0.3-0.4,0.6-0.6,0.9c-3.9,6-10.1,10.3-17.2,11.6c-0.4,0.1-0.8,0.1-1.2,0.2c-3,0.4-6.1,0.4-9.2-0.3
								c-7.4-1.6-13.4-6.1-17.1-12c-0.2-0.3-0.4-0.7-0.6-1.1c-2.9-5.3-4.1-11.7-2.7-18.1c0.9-4.1,2.6-7.8,5-10.9
								c0.2-0.3,0.4-0.5,0.6-0.8c6.1-7.2,15.8-10.9,25.6-8.8c9.3,1.9,16.4,8.5,19.4,16.8c0.1,0.3,0.2,0.6,0.3,0.9
								C250.1-2.5,250.5,0.7,250.4,4z"/>
							<g style="opacity:0.5;">
								<g>
									<path style="fill:#0055C4;" d="M249.1-5.5c-5.1,1.9-10.6,2.9-16,2.9c-2.8,0-5.7-0.3-8.5-0.8c-7.9-1.5-15.3-5.1-21.4-10.2
										c0.2-0.3,0.4-0.5,0.6-0.8c6,5.1,13.2,8.6,21,10c8.1,1.5,16.4,0.8,24-2C248.9-6.1,249-5.8,249.1-5.5z"/>
								</g>
								<g>
									<path style="fill:#0055C4;" d="M232.4,6c-0.3,1,0.2,2.1,1.6,3.4c3.5,3.4,8,5.7,12.8,6.6c-0.2,0.3-0.4,0.6-0.6,0.9
										c-4.8-1-9.4-3.4-13-6.8c-1.6-1.6-2.2-3-1.8-4.4c0.5-1.6,2.1-2.5,4.8-2.7c4.7-0.3,9.5,0,14.1,1c0,0.3,0,0.7-0.1,1
										c-4.6-1-9.3-1.3-14-1C234.7,4.1,232.8,4.5,232.4,6z"/>
								</g>
								<g>
									<path style="fill:#0055C4;" d="M229,28.5c-0.4,0.1-0.8,0.1-1.2,0.2c-7-6.9-16.5-11.4-26.3-12.3c-0.2-0.3-0.4-0.7-0.6-1.1
										C211.4,16.2,221.6,20.9,229,28.5z"/>
								</g>
							</g>
						</g>
					</g>
					<g>
						<g>
							<path style="fill:#A1D0CB;" d="M352.3,182.5L352.3,182.5c0-7.8-6.3-14-14-14l0,0c7.8,0,14-6.3,14-14l0,0c0,7.8,6.3,14,14,14
								l0,0C358.6,168.4,352.3,174.7,352.3,182.5z"/>
							<path style="fill:#A1D0CB;" d="M359.6,310.1L359.6,310.1c0-7.8-6.3-14-14-14l0,0c7.8,0,14-6.3,14-14l0,0c0,7.8,6.3,14,14,14
								l0,0C365.9,296,359.6,302.3,359.6,310.1z"/>
							<path style="fill:#A1D0CB;" d="M378.7,286.5L378.7,286.5c0-3.7-3-6.7-6.7-6.7l0,0c3.7,0,6.7-3,6.7-6.7l0,0
								c0,3.7,3,6.7,6.7,6.7l0,0C381.8,279.8,378.7,282.8,378.7,286.5z"/>
							<path style="fill:#A1D0CB;" d="M533,293.3L533,293.3c0-3.7-3-6.7-6.7-6.7l0,0c3.7,0,6.7-3,6.7-6.7l0,0c0,3.7,3,6.7,6.7,6.7
								l0,0C536,286.5,533,289.5,533,293.3z"/>
							<path style="fill:#A1D0CB;" d="M371.5,160.4L371.5,160.4c0-3.3-2.7-6-6-6l0,0c3.3,0,6-2.7,6-6l0,0c0,3.3,2.7,6,6,6l0,0
								C374.2,154.4,371.5,157.1,371.5,160.4z"/>
							<path style="fill:#A1D0CB;" d="M215,73L215,73c0-3.3-2.7-6-6-6l0,0c3.3,0,6-2.7,6-6l0,0c0,3.3,2.7,6,6,6l0,0
								C217.7,67,215,69.7,215,73z"/>
							<path style="fill:#A1D0CB;" d="M145.1,82.4L145.1,82.4c0-5.2-4.2-9.4-9.4-9.4l0,0c5.2,0,9.4-4.2,9.4-9.4l0,0
								c0,5.2,4.2,9.4,9.4,9.4l0,0C149.3,73,145.1,77.2,145.1,82.4z"/>
							<path style="fill:#A1D0CB;" d="M201.5,119.5L201.5,119.5c0-5.2-4.2-9.4-9.4-9.4l0,0c5.2,0,9.4-4.2,9.4-9.4l0,0
								c0,5.2,4.2,9.4,9.4,9.4l0,0C205.7,110,201.5,114.2,201.5,119.5z"/>
						</g>
						<g>
							<g>
								<path style="fill:#FFFFFF;" d="M350.3,81.1L350.3,81.1c0-3.5-2.9-6.4-6.4-6.4l0,0c3.5,0,6.4-2.9,6.4-6.4l0,0
									c0,3.5,2.9,6.4,6.4,6.4l0,0C353.2,74.7,350.3,77.5,350.3,81.1z"/>
								<path style="fill:#FFFFFF;" d="M309.4,123.3L309.4,123.3c0-2.4-1.9-4.3-4.3-4.3l0,0c2.4,0,4.3-1.9,4.3-4.3l0,0
									c0,2.4,1.9,4.3,4.3,4.3l0,0C311.4,118.9,309.4,120.9,309.4,123.3z"/>
								<path style="fill:#FFFFFF;" d="M292.8,73.5L292.8,73.5c0-4.5-3.6-8.1-8.1-8.1l0,0c4.5,0,8.1-3.6,8.1-8.1l0,0
									c0,4.5,3.6,8.1,8.1,8.1l0,0C296.4,65.5,292.8,69.1,292.8,73.5z"/>
								<path style="fill:#FFFFFF;" d="M356.7,68.4L356.7,68.4c0-1.6-1.3-3-3-3l0,0c1.6,0,3-1.3,3-3l0,0c0,1.6,1.3,3,3,3l0,0
									C358,65.5,356.7,66.8,356.7,68.4z"/>
							</g>
							<g>
								<polygon style="fill:#F6AF39;" points="338.7,97.9 345.4,105.4 336.5,104.6 333.3,104.3 332.9,106.6 331.3,116.3 
									325.6,107.8 324.6,106.2 322.7,107.2 314,112.1 317.1,102.3 317.7,100.5 314.4,99.2 306.5,95.9 316.5,92.1 317.8,91.6 
									316.8,88.1 314.4,80 323,85 324.9,86.2 326.6,83.7 331.9,76.2 333.1,85 333.5,88.3 336.1,88.1 345.7,87.6 339.8,93.7 
									337.3,96.4 								"/>
								<g>
									<path style="opacity:0.5;fill:#F6AF39;enable-background:new    ;" d="M333.1,85c-0.2,0.2-0.5,0.4-0.8,0.6
										c-1.4,0.8-3.2,0.8-4.5-0.2c-0.6-0.4-1-1-1.2-1.7l5.3-7.4L333.1,85z"/>
									<path style="opacity:0.5;fill:#F6AF39;enable-background:new    ;" d="M345.7,87.6l-5.9,6.1c-0.5,0-1-0.2-1.5-0.4
										c-1.5-0.6-2.6-2.1-2.6-3.7c0-0.5,0.2-1,0.4-1.5L345.7,87.6z"/>
									<path style="opacity:0.5;fill:#F6AF39;enable-background:new    ;" d="M345.4,105.4l-8.9-0.8c-0.4-0.6-0.7-1.2-0.8-1.8
										c-0.4-1.5,0.1-3.3,1.4-4.2c0.5-0.4,1-0.6,1.6-0.7L345.4,105.4z"/>
									<path style="opacity:0.5;fill:#F6AF39;enable-background:new    ;" d="M332.9,106.6l-1.6,9.7l-5.7-8.5
										c0.2-0.5,0.5-1,0.8-1.4c1-1.2,2.7-1.9,4.2-1.4C331.6,105.2,332.4,105.9,332.9,106.6z"/>
									<path style="opacity:0.5;fill:#F6AF39;enable-background:new    ;" d="M322.7,107.2l-8.8,4.9l3.1-9.8
										c0.5-0.2,1-0.3,1.6-0.3c1.6-0.1,3.2,0.8,3.9,2.2C323,105.1,323,106.2,322.7,107.2z"/>
									<path style="opacity:0.5;fill:#F6AF39;enable-background:new    ;" d="M317.5,96.9c-0.6,1.1-1.7,1.8-2.9,2.2
										c-0.1,0-0.1,0-0.2,0.1l-8-3.3l10-3.8c0.1,0.1,0.2,0.2,0.4,0.4C317.9,93.7,318.3,95.5,317.5,96.9z"/>
									<path style="opacity:0.5;fill:#F6AF39;enable-background:new    ;" d="M323,85c0,0.1,0,0.2,0,0.3c-0.3,1.6-1.4,3-3,3.3
										c-1.1,0.2-2.2-0.1-3.2-0.6l-2.4-8.1L323,85z"/>
								</g>
							</g>
						</g>
						<g>
							<circle style="fill:#FFFFFF;" cx="131.1" cy="89" r="1.4"/>
							<path style="fill:#FFFFFF;" d="M145.1,50.9c0,0.5-0.4,1-1,1c-0.5,0-1-0.4-1-1c0-0.5,0.4-1,1-1
								C144.7,49.9,145.1,50.4,145.1,50.9z"/>
							<path style="fill:#FFFFFF;" d="M47.6,63.5c0,1-0.8,1.7-1.7,1.7c-1,0-1.7-0.8-1.7-1.7c0-1,0.8-1.7,1.7-1.7
								C46.9,61.8,47.6,62.5,47.6,63.5z"/>
							<circle style="fill:#FFFFFF;" cx="24.9" cy="181.1" r="1.7"/>
							<path style="fill:#FFFFFF;" d="M34.4,203.6c0,1-0.8,1.9-1.9,1.9c-1,0-1.9-0.8-1.9-1.9s0.8-1.9,1.9-1.9
								C33.6,201.8,34.4,202.6,34.4,203.6z"/>
							<path style="fill:#FFFFFF;" d="M382.7,232.1c0,1.1-0.9,2-2,2s-2-0.9-2-2s0.9-2,2-2C381.8,230.2,382.7,231.1,382.7,232.1z"/>
							<path style="fill:#FFFFFF;" d="M384.5,202.7c0,0.5-0.4,0.9-0.9,0.9s-0.9-0.4-0.9-0.9s0.4-0.9,0.9-0.9
								S384.5,202.2,384.5,202.7z"/>
							<path style="fill:#FFFFFF;" d="M367.8,108.5c0,0.4-0.3,0.7-0.7,0.7c-0.4,0-0.7-0.3-0.7-0.7c0-0.4,0.3-0.7,0.7-0.7
								S367.8,108.1,367.8,108.5z"/>
							<path style="fill:#FFFFFF;" d="M382.7,312.6c0,0-0.9,0-2,0s-2,0-2,0s0.9,0,2,0C381.8,312.6,382.7,312.6,382.7,312.6z"/>
							<path style="fill:#FFFFFF;" d="M348.6,327c0,1.6-1.3,2.9-2.9,2.9s-2.9-1.3-2.9-2.9s1.3-2.9,2.9-2.9
								C347.3,324.1,348.6,325.4,348.6,327z"/>
							<path style="fill:#FFFFFF;" d="M524.8,249.4c0,0.6-0.5,1.1-1.1,1.1s-1.1-0.5-1.1-1.1s0.5-1.1,1.1-1.1
								C524.3,248.3,524.8,248.8,524.8,249.4z"/>
							<circle style="fill:#FFFFFF;" cx="519.3" cy="229.4" r="0.8"/>
							<path style="fill:#FFFFFF;" d="M506.4,299.4c0,0.6-0.5,1.1-1.1,1.1s-1.1-0.5-1.1-1.1s0.5-1.1,1.1-1.1
								S506.4,298.8,506.4,299.4z"/>
							<path style="fill:#FFFFFF;" d="M539.8,327c0,0-0.6,0-1.4,0s-1.4,0-1.4,0s0.6,0,1.4,0S539.8,327,539.8,327z"/>
							<path style="fill:#FFFFFF;" d="M447.5,220.5c0,0.6-0.5,1-1,1c-0.6,0-1-0.5-1-1c0-0.6,0.5-1,1-1
								C447.1,219.5,447.5,219.9,447.5,220.5z"/>
							<path style="fill:#FFFFFF;" d="M203.3,149.3c0,0.5-0.4,0.9-0.9,0.9s-0.9-0.4-0.9-0.9s0.4-0.9,0.9-0.9
								C202.9,148.4,203.3,148.8,203.3,149.3z"/>
							<circle style="fill:#FFFFFF;" cx="334.6" cy="45.2" r="1.2"/>
							<circle style="fill:#FFFFFF;" cx="375.2" cy="79.7" r="1.6"/>
							<circle style="fill:#FFFFFF;" cx="603.9" cy="244.9" r="1.3"/>
						</g>
					</g>
				</g>
			</g>
		</g>
	</g>
</g>
</svg>
