<?xml version="1.0" encoding="utf-8"?>
<!-- Generator: Adobe Illustrator 26.3.1, SVG Export Plug-In . SVG Version: 6.00 Build 0)  -->
<svg version="1.1" id="Layer_1" xmlns="http://www.w3.org/2000/svg" xmlns:xlink="http://www.w3.org/1999/xlink" x="0px" y="0px"
	 width="33px" height="19.4px" viewBox="0 0 33 19.4" style="enable-background:new 0 0 33 19.4;" xml:space="preserve">
<path id="Path_966" d="M32.1,1L32.1,1c-1.4-1.4-3.5-1.4-4.8,0c0,0,0,0,0,0l-2,2.1c-0.1-0.8-0.4-1.5-1-2l0,0c-1.3-1.3-3.5-1.3-4.8,0
	c0,0,0,0,0,0l-6.8,6.8c-1.3-0.6-2.8-0.3-3.8,0.7c-0.6,0.6-0.9,1.3-1,2.1L5.8,8.5C4.4,7.2,2.3,7.2,1,8.5s-1.3,3.5,0,4.8l0,0l5.1,5
	c0.8,0.7,1.8,1.2,2.8,1.1h0c1.1,0,2.1-0.4,2.8-1.2l1.1-1.1l1.1,1.1c0.8,0.7,1.8,1.2,2.8,1.1h0c1.1,0,2.1-0.4,2.8-1.2L32.1,5.8
	C33.4,4.5,33.4,2.3,32.1,1L32.1,1z M20.3,1.9c0.8-0.8,2.2-0.8,3,0c0,0,0,0,0,0l0,0c0.7,0.7,0.8,1.9,0.3,2.7
	c-0.1,0.1-0.2,0.2-0.3,0.3l-6.5,6.5l-3.1-3l0,0L20.3,1.9z M10.9,17.4c-0.5,0.5-1.2,0.8-2,0.8h0c-0.7,0-1.4-0.3-2-0.8l-5.1-5
	c-0.8-0.8-0.9-2.2,0-3c0.8-0.8,2.2-0.9,3,0c0,0,0,0,0,0l4,4l0,0l0,0l0,0l3.1,3.1L10.9,17.4z M31.5,4.6c-0.1,0.1-0.2,0.2-0.3,0.3
	l-7.5,7.5l-3,3l-0.9,0.9l-1,1c-0.5,0.5-1.2,0.8-2,0.8h0c-0.7,0-1.4-0.3-2-0.8l-2-1.9l-3.1-3l0,0c-0.8-0.8-0.9-2.2,0-3
	c0.8-0.8,2.2-0.9,3,0c0,0,0,0,0,0l3.1,3.1l0.9,0.9l0,0l0.9-0.9l3-3.1l0.9-0.9l6.6-6.7c0.8-0.8,2.2-0.8,3,0c0,0,0,0,0,0l0,0
	C31.9,2.6,32.1,3.8,31.5,4.6L31.5,4.6z"/>
</svg>
